<svg width="22" height="18" viewBox="0 0 22 18" fill="none" xmlns="http://www.w3.org/2000/svg">
<path d="M15.4631 4.16479C14.0314 2.34763 11.8109 1.18097 9.31787 1.18097C4.99942 1.18097 1.49884 4.68155 1.49884 8.99999C1.49884 13.3184 4.99942 16.819 9.31787 16.819C12.6735 16.819 15.5354 14.7053 16.6446 11.7367" stroke="#1F9F41" stroke-width="1.56381" stroke-linecap="round" stroke-linejoin="round"/>
<path d="M3.27454 13.9619C3.27454 13.9619 5.0174 11.7367 9.31786 11.7367C13.6183 11.7367 15.362 13.9619 15.362 13.9619M9.31786 8.99999C9.93998 8.99999 10.5366 8.75286 10.9765 8.31295C11.4164 7.87305 11.6636 7.27641 11.6636 6.65429C11.6636 6.03217 11.4164 5.43553 10.9765 4.99562C10.5366 4.55571 9.93998 4.30858 9.31786 4.30858C8.69574 4.30858 8.0991 4.55571 7.65919 4.99562C7.21929 5.43553 6.97215 6.03217 6.97215 6.65429C6.97215 7.27641 7.21929 7.87305 7.65919 8.31295C8.0991 8.75286 8.69574 8.99999 9.31786 8.99999Z" stroke="#1F9F41" stroke-width="1.56381" stroke-linecap="round" stroke-linejoin="round"/>
<path fill-rule="evenodd" clip-rule="evenodd" d="M18.3829 3.52669C18.5735 3.52669 18.7562 3.60237 18.8909 3.73709C19.0256 3.87182 19.1013 4.05454 19.1013 4.24506V6.40018H21.2564C21.447 6.40018 21.6297 6.47587 21.7644 6.61059C21.8991 6.74531 21.9748 6.92803 21.9748 7.11855C21.9748 7.30908 21.8991 7.4918 21.7644 7.62652C21.6297 7.76124 21.447 7.83693 21.2564 7.83693H19.1013V9.99204C19.1013 10.1826 19.0256 10.3653 18.8909 10.5C18.7562 10.6347 18.5735 10.7104 18.3829 10.7104C18.1924 10.7104 18.0097 10.6347 17.875 10.5C17.7403 10.3653 17.6646 10.1826 17.6646 9.99204V7.83693H15.5094C15.3189 7.83693 15.1362 7.76124 15.0015 7.62652C14.8668 7.4918 14.7911 7.30908 14.7911 7.11855C14.7911 6.92803 14.8668 6.74531 15.0015 6.61059C15.1362 6.47587 15.3189 6.40018 15.5094 6.40018H17.6646V4.24506C17.6646 4.05454 17.7403 3.87182 17.875 3.73709C18.0097 3.60237 18.1924 3.52669 18.3829 3.52669Z" fill="#1F9F41"/>
</svg>
