<svg width="207" height="45" viewBox="0 0 207 45" fill="none" xmlns="http://www.w3.org/2000/svg">
<g clip-path="url(#clip0_4_35)">
<path d="M38.7876 32.8091L33.0645 35.9575L33.3673 24.7575L27.2953 28.0749C28.6485 26.4085 29.4611 24.2776 29.4611 21.9623C29.4611 21.5476 29.4343 21.1368 29.3845 20.7337L33.6356 18.3723L33.3098 13.8416L22.5689 7.55243L27.9547 4.64971L38.7991 10.9543L38.7876 32.8091ZM0.75354 33.3121L0.780376 26.7733L10.4096 32.4751L10.4633 24.6615C11.2606 27.4299 13.2578 29.6875 15.8491 30.8394V35.8078L19.9622 37.7237L30.6648 31.3731L30.5881 37.4972L19.8204 43.9323L0.75354 33.3121ZM19.5367 0L25.1564 3.3289L15.3814 8.77341L21.4879 12.4133C20.9321 12.3135 20.3609 12.2636 19.7782 12.2636C17.5779 12.2636 15.5501 12.9969 13.9248 14.2371L9.76564 11.7951L6.03584 14.383L6.10483 26.8424L0.864709 23.6786L0.761208 11.1194L19.5367 0Z" fill="url(#paint0_linear_4_35)"/>
<path d="M19.7744 14.5097C23.8837 14.5097 27.2148 17.8463 27.2148 21.9623C27.2148 24.9764 25.4017 27.691 22.6225 28.8467C19.8434 29.9985 16.6426 29.3612 14.5151 27.2302C12.3876 25.0992 11.7513 21.8932 12.9013 19.1095C14.0513 16.3258 16.7652 14.5097 19.7744 14.5097Z" fill="url(#paint1_radial_4_35)"/>
<path fill-rule="evenodd" clip-rule="evenodd" d="M206.159 17.8137V17.7253C206.159 17.134 206.044 16.5811 205.825 16.0666C205.607 15.556 205.3 15.1068 204.909 14.7151C204.518 14.3235 204.069 14.0163 203.56 13.7975C203.05 13.5786 202.49 13.4634 201.904 13.4634H196.042C195.456 13.4634 194.904 13.5786 194.394 13.7975C193.884 14.0163 193.432 14.3235 193.049 14.7151C192.665 15.1029 192.359 15.5598 192.144 16.0666C191.926 16.5811 191.811 17.1379 191.811 17.7253V17.8137C191.811 18.259 191.88 18.6968 192.006 19.1037C192.132 19.5107 192.324 19.8832 192.554 20.2287C192.715 20.4706 192.891 20.7048 193.095 20.9045C193.478 21.2808 193.926 21.5726 194.425 21.7799C194.923 21.9873 195.464 22.0986 196.042 22.0986H201.183C201.585 22.0986 201.953 22.2023 202.279 22.3943C202.605 22.5862 202.873 22.8473 203.065 23.1698C203.257 23.4924 203.364 23.861 203.364 24.2603C203.364 24.6596 203.257 25.0282 203.065 25.3546C202.873 25.6771 202.605 25.9382 202.279 26.1302C201.953 26.3221 201.582 26.4258 201.183 26.4258H196.782C196.384 26.4258 196.016 26.3221 195.694 26.1302C195.372 25.9382 195.111 25.6771 194.919 25.3546C194.728 25.0282 194.624 24.6634 194.624 24.2603H191.811C191.814 24.9514 191.945 25.6003 192.201 26.1993C192.458 26.7982 192.815 27.3243 193.271 27.7812C193.727 28.2381 194.248 28.5952 194.85 28.8524C195.448 29.1058 196.096 29.244 196.786 29.244H201.187C201.877 29.244 202.525 29.1097 203.123 28.8524C203.721 28.5952 204.246 28.2381 204.706 27.7812C205.158 27.3281 205.518 26.7982 205.771 26.1993C206.024 25.6003 206.162 24.9514 206.162 24.2603C206.162 23.6613 206.059 23.0892 205.863 22.5555C205.668 22.0218 205.392 21.5342 205.039 21.108C205.012 21.0734 204.974 21.0389 204.951 21.0043C204.928 20.9736 204.89 20.9352 204.863 20.9007C204.411 20.4015 203.866 20.0022 203.238 19.7181C202.613 19.434 201.93 19.2804 201.194 19.2804H196.054C195.789 19.2804 195.548 19.2113 195.329 19.0807C195.111 18.954 194.938 18.7774 194.812 18.5624C194.682 18.3474 194.613 18.1055 194.613 17.8367V17.7484C194.613 17.4796 194.682 17.2416 194.812 17.0227C194.938 16.8077 195.115 16.6311 195.329 16.5044C195.548 16.3738 195.789 16.3047 196.054 16.3047H201.915C202.183 16.3047 202.421 16.3738 202.64 16.5044C202.854 16.6311 203.031 16.8077 203.157 17.0227C203.287 17.2416 203.356 17.4873 203.356 17.7484V17.8367L206.159 17.8137ZM190.944 26.4258L184.351 13.4673L177.758 26.4258L176.316 29.244H179.467L180.905 26.4258L184.347 19.6643L187.789 26.4258L189.231 29.244H192.382L190.944 26.4258ZM169.93 26.445H165.572V16.2817H169.93C170.631 16.2817 171.291 16.4199 171.896 16.681C172.506 16.9421 173.043 17.3107 173.506 17.7753C173.97 18.2398 174.331 18.7774 174.595 19.3917C174.856 20.0022 174.994 20.6626 174.994 21.3653C174.994 22.0717 174.86 22.7283 174.595 23.3426C174.334 23.9531 173.97 24.4907 173.506 24.9591C173.046 25.4237 172.506 25.7884 171.896 26.0495C171.291 26.3029 170.631 26.4412 169.93 26.445ZM169.953 13.4673H162.781V29.244H169.953C170.677 29.244 171.371 29.1442 172.034 28.9638C172.698 28.7795 173.322 28.5107 173.901 28.169C174.484 27.8234 175.017 27.4087 175.488 26.9249C175.565 26.8482 175.645 26.7675 175.722 26.6907C175.799 26.6101 175.875 26.5333 175.941 26.4527C176.527 25.7616 176.987 24.9783 177.313 24.1144C177.639 23.2505 177.807 22.3328 177.807 21.3576C177.807 20.4783 177.669 19.6451 177.405 18.8619C177.14 18.0747 176.765 17.3491 176.282 16.6925C175.803 16.0398 175.231 15.4677 174.58 14.9877C173.924 14.5078 173.2 14.1354 172.418 13.8704C171.636 13.6055 170.804 13.4711 169.934 13.4673H169.953ZM158.074 13.4673V23.5039L147.95 15.6942L145.136 13.5364V29.244H147.95V19.2765L158.074 27.0862L160.887 29.2479V13.4941L158.074 13.4673ZM134.733 16.2817H143.269V13.4634H134.733C134.146 13.4634 133.59 13.5786 133.084 13.7975C132.578 14.0163 132.13 14.3235 131.743 14.7151C131.355 15.1068 131.056 15.556 130.838 16.0666C130.619 16.5811 130.508 17.134 130.504 17.7253V24.9821C130.508 25.5734 130.619 26.1225 130.838 26.6331C131.056 27.1476 131.355 27.6007 131.743 27.9885C132.13 28.3801 132.578 28.6873 133.084 28.9062C133.594 29.125 134.146 29.2402 134.733 29.2402H143.269V26.422H134.733C134.468 26.422 134.227 26.3529 134.008 26.2223C133.79 26.0918 133.617 25.919 133.491 25.704C133.36 25.4851 133.291 25.2432 133.291 24.9783V22.5325H143.269V19.7142H133.291V17.7215C133.291 17.4527 133.36 17.2147 133.491 16.9958C133.621 16.7808 133.793 16.608 134.008 16.4775C134.227 16.3508 134.464 16.2855 134.733 16.2817ZM126.947 13.4673L125.506 16.2855L122.064 23.047L118.621 16.2855L117.184 13.4673H114.033L115.474 16.2855L122.067 29.244L128.661 16.2855L130.102 13.4673H126.947Z" fill="#1F9F41"/>
<path fill-rule="evenodd" clip-rule="evenodd" d="M107.926 13.5287V19.288H102.192V23.0931H107.93V29.221H112.488V13.5325H107.926V13.5287ZM101.057 19.288H101.049V13.5287H96.4839V29.2172H101.049V23.0892H101.057V19.288ZM58.7833 29.2402H63.3641V17.8405H58.7833V29.2402ZM68.2899 13.4673H53.8537V16.6733H68.2899V13.4673ZM82.362 19.2957H74.0284V16.6426H82.362V13.4673H73.415H69.4667V29.244C73.5684 29.244 78.2642 29.244 82.362 29.244V26.0687H74.0284V23.0739H82.3658V19.2957H82.362ZM83.4851 13.4634V29.2402C87.3223 29.2402 91.6041 29.2402 95.445 29.2402V26.0649H88.0467V16.6387H95.445V13.4634C91.6041 13.4634 87.3261 13.4673 83.4851 13.4634Z" fill="#1E1E1E"/>
</g>
<defs>
<linearGradient id="paint0_linear_4_35" x1="13.2155" y1="18.3352" x2="46.3286" y2="37.0912" gradientUnits="userSpaceOnUse">
<stop stop-color="#21A33E"/>
<stop offset="1" stop-color="#35D120"/>
</linearGradient>
<radialGradient id="paint1_radial_4_35" cx="0" cy="0" r="1" gradientUnits="userSpaceOnUse" gradientTransform="translate(19.7733 21.9631) scale(7.44006 7.45222)">
<stop stop-color="#35D120"/>
<stop offset="1" stop-color="#21A33E"/>
</radialGradient>
<clipPath id="clip0_4_35">
<rect width="207" height="44.5976" fill="white"/>
</clipPath>
</defs>
</svg>
