<svg width="79" height="79" viewBox="0 0 79 79" fill="none" xmlns="http://www.w3.org/2000/svg">
<path d="M32.4255 25.0691L33.5777 23.3409C32.9403 22.916 32.1208 22.8763 31.4454 23.2378C30.77 23.5993 30.3484 24.3031 30.3484 25.0691H32.4255ZM54.4946 39.7819L55.6468 41.5101C56.2246 41.1249 56.5717 40.4763 56.5717 39.7819C56.5717 39.0874 56.2246 38.4389 55.6468 38.0536L54.4946 39.7819ZM32.4255 54.4946H30.3484C30.3484 55.2606 30.77 55.9645 31.4454 56.3259C32.1208 56.6874 32.9403 56.6478 33.5777 56.2229L32.4255 54.4946ZM74.4866 39.7819C74.4866 58.9488 58.9488 74.4866 39.7819 74.4866V78.6408C61.2431 78.6408 78.6408 61.2431 78.6408 39.7819H74.4866ZM39.7819 74.4866C20.615 74.4866 5.07709 58.9488 5.07709 39.7819H0.922906C0.922906 61.2431 18.3207 78.6408 39.7819 78.6408V74.4866ZM5.07709 39.7819C5.07709 20.615 20.615 5.07709 39.7819 5.07709V0.922906C18.3207 0.922906 0.922906 18.3207 0.922906 39.7819H5.07709ZM39.7819 5.07709C58.9488 5.07709 74.4866 20.615 74.4866 39.7819H78.6408C78.6408 18.3207 61.2431 0.922906 39.7819 0.922906V5.07709ZM31.2733 26.7974L53.3424 41.5101L55.6468 38.0536L33.5777 23.3409L31.2733 26.7974ZM53.3424 38.0536L31.2733 52.7664L33.5777 56.2229L55.6468 41.5101L53.3424 38.0536ZM34.5026 54.4946V25.0691H30.3484V54.4946H34.5026Z" fill="white"/>
</svg>
